<svg width="36" height="37" viewBox="0 0 36 37" fill="none" xmlns="http://www.w3.org/2000/svg">
<path d="M19.38 3.41492L29.145 8.7187C30.285 9.33823 30.285 11.1062 29.145 11.7257L19.38 17.0295C18.51 17.4979 17.49 17.4979 16.62 17.0295L6.855 11.7257C5.715 11.1062 5.715 9.33823 6.855 8.7187L16.62 3.41492C17.49 2.94649 18.51 2.94649 19.38 3.41492Z" stroke="white" stroke-width="3" stroke-linecap="round" stroke-linejoin="round"/>
<path d="M5.415 15.3069L14.49 19.8854C15.615 20.4596 16.335 21.6231 16.335 22.8924V31.5356C16.335 32.7898 15.03 33.5906 13.92 33.0316L4.845 28.4531C3.72 27.8789 3 26.7154 3 25.4461V16.8029C3 15.5487 4.305 14.7478 5.415 15.3069Z" stroke="white" stroke-width="3" stroke-linecap="round" stroke-linejoin="round"/>
<path d="M30.585 15.3069L21.51 19.8854C20.385 20.4596 19.665 21.6231 19.665 22.8924V31.5356C19.665 32.7898 20.97 33.5906 22.08 33.0316L31.155 28.4531C32.28 27.8789 33 26.7154 33 25.4461V16.8029C33 15.5487 31.695 14.7478 30.585 15.3069Z" stroke="white" stroke-width="3" stroke-linecap="round" stroke-linejoin="round"/>
</svg>
