<svg width="36" height="36" viewBox="0 0 36 36" fill="none" xmlns="http://www.w3.org/2000/svg">
<path d="M27 10.74C26.91 10.725 26.805 10.725 26.715 10.74C24.645 10.665 22.995 8.97 22.995 6.87C22.995 4.725 24.72 3 26.865 3C29.01 3 30.735 4.74 30.735 6.87C30.72 8.97 29.07 10.665 27 10.74Z" stroke="white" stroke-width="3" stroke-linecap="round" stroke-linejoin="round"/>
<path d="M25.455 21.66C27.51 22.005 29.775 21.645 31.365 20.58C33.48 19.17 33.48 16.86 31.365 15.45C29.76 14.385 27.465 14.025 25.41 14.385" stroke="white" stroke-width="3" stroke-linecap="round" stroke-linejoin="round"/>
<path d="M8.955 10.74C9.045 10.725 9.15 10.725 9.24 10.74C11.31 10.665 12.96 8.97 12.96 6.87C12.96 4.725 11.235 3 9.09 3C6.945 3 5.22 4.74 5.22 6.87C5.235 8.97 6.885 10.665 8.955 10.74Z" stroke="white" stroke-width="3" stroke-linecap="round" stroke-linejoin="round"/>
<path d="M10.5 21.66C8.445 22.005 6.18 21.645 4.59 20.58C2.475 19.17 2.475 16.86 4.59 15.45C6.195 14.385 8.49 14.025 10.545 14.385" stroke="white" stroke-width="3" stroke-linecap="round" stroke-linejoin="round"/>
<path d="M18 21.945C17.91 21.93 17.805 21.93 17.715 21.945C15.645 21.87 13.995 20.175 13.995 18.075C13.995 15.93 15.72 14.205 17.865 14.205C20.01 14.205 21.735 15.945 21.735 18.075C21.72 20.175 20.07 21.885 18 21.945Z" stroke="white" stroke-width="3" stroke-linecap="round" stroke-linejoin="round"/>
<path d="M13.635 26.6699C11.52 28.0799 11.52 30.3899 13.635 31.7999C16.035 33.4049 19.965 33.4049 22.365 31.7999C24.48 30.3899 24.48 28.0799 22.365 26.6699C19.98 25.0799 16.035 25.0799 13.635 26.6699Z" stroke="white" stroke-width="3" stroke-linecap="round" stroke-linejoin="round"/>
</svg>
