<svg width="36" height="36" viewBox="0 0 36 36" fill="none" xmlns="http://www.w3.org/2000/svg">
<path d="M12.5699 18.0001L16.1849 21.6302L23.4299 14.3701" stroke="white" stroke-width="3" stroke-linecap="round" stroke-linejoin="round"/>
<path d="M16.1249 3.67498C17.1599 2.78998 18.8549 2.78998 19.9049 3.67498L22.2749 5.71499C22.7249 6.10499 23.5649 6.41999 24.1649 6.41999H26.7149C28.3049 6.41999 29.6099 7.72499 29.6099 9.31499V11.865C29.6099 12.45 29.9249 13.305 30.3149 13.755L32.3549 16.125C33.2399 17.16 33.2399 18.855 32.3549 19.905L30.3149 22.275C29.9249 22.725 29.6099 23.565 29.6099 24.165V26.715C29.6099 28.305 28.3049 29.61 26.7149 29.61H24.1649C23.5799 29.61 22.7249 29.925 22.2749 30.315L19.9049 32.355C18.8699 33.24 17.1749 33.24 16.1249 32.355L13.7549 30.315C13.3049 29.925 12.4649 29.61 11.8649 29.61H9.26994C7.67994 29.61 6.37494 28.305 6.37494 26.715V24.15C6.37494 23.565 6.05994 22.725 5.68494 22.275L3.65995 19.89C2.78995 18.855 2.78995 17.175 3.65995 16.14L5.68494 13.755C6.05994 13.305 6.37494 12.465 6.37494 11.88V9.29999C6.37494 7.70999 7.67994 6.40499 9.26994 6.40499H11.8649C12.4499 6.40499 13.3049 6.08999 13.7549 5.69999L16.1249 3.67498Z" stroke="white" stroke-width="3" stroke-linecap="round" stroke-linejoin="round"/>
</svg>
