<svg width="883" height="319" viewBox="0 0 883 319" fill="none" xmlns="http://www.w3.org/2000/svg">
<path opacity="0.7" d="M72.223 48.85C73.5943 47.2293 74.28 45.297 74.28 43.053C74.28 40.809 73.5943 38.8143 72.223 37.069C70.9763 35.199 69.1063 34.264 66.613 34.264H50.905V51.281H66.613C69.1063 51.281 70.9763 50.4707 72.223 48.85ZM50.905 82.51V100.836H68.296C71.1633 100.836 73.2827 99.901 74.654 98.031C76.15 96.0363 76.898 93.8547 76.898 91.486V91.299C76.898 88.9303 76.0877 86.8733 74.467 85.128C72.971 83.3827 70.914 82.51 68.296 82.51H50.905ZM73.158 133H9.204C7.83267 133 6.64833 132.501 5.651 131.504C4.65367 130.507 4.155 129.322 4.155 127.951V7.14899C4.155 5.77766 4.65367 4.59333 5.651 3.59599C6.64833 2.59866 7.83267 2.09999 9.204 2.09999H71.288C88.9907 2.09999 102.018 5.34133 110.371 11.824C118.848 18.182 123.087 27.8437 123.087 40.809V41.37C123.087 46.7307 121.529 51.5303 118.412 55.769C115.295 59.883 111.867 62.875 108.127 64.745C113.114 66.7397 117.29 70.2927 120.656 75.404C124.147 80.3907 125.892 85.876 125.892 91.86C125.892 119.287 108.314 133 73.158 133ZM190.381 96.535H247.977C249.348 96.535 250.532 97.0337 251.53 98.031C252.527 99.0283 253.026 100.213 253.026 101.584V127.951C253.026 129.322 252.527 130.507 251.53 131.504C250.532 132.501 249.348 133 247.977 133H150.55C149.178 133 147.994 132.501 146.997 131.504C145.999 130.507 145.501 129.322 145.501 127.951V7.14899C145.501 5.77766 145.999 4.59333 146.997 3.59599C147.994 2.59866 149.178 2.09999 150.55 2.09999H246.481C247.852 2.09999 249.036 2.59866 250.034 3.59599C251.031 4.59333 251.53 5.77766 251.53 7.14899V33.516C251.53 34.8873 251.031 36.0717 250.034 37.069C249.036 38.0663 247.852 38.565 246.481 38.565H190.381V50.346H242.367C243.738 50.346 244.922 50.8447 245.92 51.842C246.917 52.8393 247.416 54.0237 247.416 55.395V79.705C247.416 81.0763 246.917 82.2607 245.92 83.258C244.922 84.2553 243.738 84.754 242.367 84.754H190.381V96.535ZM272.158 43.24C272.158 30.524 277.394 20.1767 287.866 12.198C298.463 4.21933 312.301 0.229993 329.38 0.229993C346.584 0.229993 360.609 4.40633 371.455 12.759C382.426 21.1117 387.911 29.8383 387.911 38.939C387.911 40.061 387.475 41.0583 386.602 41.931C385.854 42.679 384.981 43.053 383.984 43.053H346.584C343.717 43.053 341.099 41.9933 338.73 39.874C336.361 37.7547 333.182 36.695 329.193 36.695C323.209 36.695 320.217 38.4403 320.217 41.931C320.217 43.801 321.651 45.3593 324.518 46.606C327.51 47.8527 332.995 48.9747 340.974 49.972C359.549 52.3407 372.764 56.704 380.618 63.062C388.597 69.2953 392.586 78.8323 392.586 91.673C392.586 104.389 386.727 114.799 375.008 122.902C363.414 130.881 348.205 134.87 329.38 134.87C310.555 134.87 295.782 131.005 285.061 123.276C274.34 115.547 268.979 106.134 268.979 95.039C268.979 93.917 269.353 92.982 270.101 92.234C270.974 91.3613 271.971 90.925 273.093 90.925H308.623C311.241 90.925 314.108 92.1717 317.225 94.665C320.466 97.1583 324.892 98.405 330.502 98.405C339.852 98.405 344.527 96.6597 344.527 93.169C344.527 90.925 342.844 89.242 339.478 88.12C336.112 86.8733 329.754 85.6267 320.404 84.38C288.24 80.1413 272.158 66.428 272.158 43.24ZM408.8 2.09999H518.382C519.753 2.09999 520.937 2.59866 521.935 3.59599C522.932 4.59333 523.431 5.77766 523.431 7.14899V37.256C523.431 38.6273 522.932 39.8117 521.935 40.809C520.937 41.8063 519.753 42.305 518.382 42.305H487.34V127.951C487.34 129.322 486.841 130.507 485.844 131.504C484.846 132.501 483.662 133 482.291 133H444.891C443.519 133 442.335 132.501 441.338 131.504C440.34 130.507 439.842 129.322 439.842 127.951V42.305H408.8C407.428 42.305 406.244 41.8063 405.247 40.809C404.249 39.8117 403.751 38.6273 403.751 37.256V7.14899C403.751 5.77766 404.249 4.59333 405.247 3.59599C406.244 2.59866 407.428 2.09999 408.8 2.09999ZM17.432 187.068C28.9013 177.843 44.0483 173.23 62.873 173.23C81.6977 173.23 96.7823 177.905 108.127 187.255C119.596 196.48 125.331 209.508 125.331 226.338V255.51C125.331 270.221 120.905 282.126 112.054 291.227L126.64 312.358C127.014 313.106 127.201 313.854 127.201 314.602C127.201 315.475 126.827 316.285 126.079 317.033C125.456 317.781 124.583 318.155 123.461 318.155H86.809C83.6923 318.155 81.0743 316.721 78.955 313.854L73.719 307.309C70.1037 307.683 66.4883 307.87 62.873 307.87C43.799 307.87 28.5897 303.444 17.245 294.593C6.025 285.617 0.415 272.589 0.415 255.51V226.338C0.415 209.383 6.08733 196.293 17.432 187.068ZM52.775 267.665C55.2683 270.158 58.6343 271.405 62.873 271.405C67.1117 271.405 70.4777 270.158 72.971 267.665C75.4643 265.172 76.711 261.369 76.711 256.258V224.842C76.711 219.855 75.4643 216.115 72.971 213.622C70.4777 211.004 67.1117 209.695 62.873 209.695C58.6343 209.695 55.2683 211.004 52.775 213.622C50.2817 216.115 49.035 219.855 49.035 224.842V256.258C49.035 261.369 50.2817 265.172 52.775 267.665ZM225.48 175.1H262.132C263.503 175.1 264.687 175.599 265.685 176.596C266.682 177.593 267.181 178.778 267.181 180.149V255.323C267.181 272.776 261.758 285.929 250.912 294.78C240.066 303.507 225.293 307.87 206.593 307.87C188.017 307.87 173.244 303.507 162.274 294.78C151.428 286.053 146.005 272.901 146.005 255.323V180.149C146.005 178.778 146.503 177.593 147.501 176.596C148.498 175.599 149.682 175.1 151.054 175.1H187.706C189.077 175.1 190.261 175.599 191.259 176.596C192.256 177.593 192.755 178.778 192.755 180.149V255.884C192.755 265.483 197.367 270.283 206.593 270.283C215.818 270.283 220.431 265.483 220.431 255.884V180.149C220.431 178.778 220.929 177.593 221.927 176.596C222.924 175.599 224.108 175.1 225.48 175.1ZM330.539 175.1H371.118C375.606 175.1 378.411 177.157 379.533 181.271L421.234 300.577C421.358 300.951 421.421 301.574 421.421 302.447C421.421 303.195 420.984 304.005 420.112 304.878C419.364 305.626 418.429 306 417.307 306H382.712C378.972 306 376.541 304.442 375.419 301.325L370.931 288.983H330.726L326.238 301.325C325.116 304.442 322.685 306 318.945 306H284.35C283.228 306 282.23 305.626 281.358 304.878C280.61 304.005 280.236 303.195 280.236 302.447C280.236 301.574 280.298 300.951 280.423 300.577L322.124 181.271C323.246 177.157 326.051 175.1 330.539 175.1ZM340.263 252.518H361.394L350.735 217.736L340.263 252.518ZM483.908 267.665H535.707C537.078 267.665 538.263 268.164 539.26 269.161C540.257 270.158 540.756 271.343 540.756 272.714V300.951C540.756 302.322 540.257 303.507 539.26 304.504C538.263 305.501 537.078 306 535.707 306H441.459C440.088 306 438.903 305.501 437.906 304.504C436.909 303.507 436.41 302.322 436.41 300.951V180.149C436.41 178.778 436.909 177.593 437.906 176.596C438.903 175.599 440.088 175.1 441.459 175.1H478.859C480.23 175.1 481.415 175.599 482.412 176.596C483.409 177.593 483.908 178.778 483.908 180.149V267.665ZM600.865 306H562.717C561.345 306 560.161 305.501 559.164 304.504C558.166 303.507 557.668 302.322 557.668 300.951V180.149C557.668 178.778 558.166 177.593 559.164 176.596C560.161 175.599 561.345 175.1 562.717 175.1H600.865C602.236 175.1 603.42 175.599 604.418 176.596C605.415 177.593 605.914 178.778 605.914 180.149V300.951C605.914 302.322 605.415 303.507 604.418 304.504C603.42 305.501 602.236 306 600.865 306ZM628.671 175.1H738.253C739.624 175.1 740.808 175.599 741.806 176.596C742.803 177.593 743.302 178.778 743.302 180.149V210.256C743.302 211.627 742.803 212.812 741.806 213.809C740.808 214.806 739.624 215.305 738.253 215.305H707.211V300.951C707.211 302.322 706.712 303.507 705.715 304.504C704.717 305.501 703.533 306 702.162 306H664.762C663.39 306 662.206 305.501 661.209 304.504C660.211 303.507 659.713 302.322 659.713 300.951V215.305H628.671C627.299 215.305 626.115 214.806 625.118 213.809C624.12 212.812 623.622 211.627 623.622 210.256V180.149C623.622 178.778 624.12 177.593 625.118 176.596C626.115 175.599 627.299 175.1 628.671 175.1ZM834.968 306H798.316C796.945 306 795.761 305.501 794.763 304.504C793.766 303.507 793.267 302.322 793.267 300.951V264.112L751.192 180.897C750.943 180.398 750.818 179.713 750.818 178.84C750.818 177.967 751.192 177.157 751.94 176.409C752.813 175.536 753.81 175.1 754.932 175.1H790.088C793.828 175.1 796.446 176.658 797.942 179.775L816.642 217.362L835.342 179.775C836.838 176.658 839.456 175.1 843.196 175.1H878.352C879.474 175.1 880.409 175.536 881.157 176.409C882.03 177.157 882.466 177.967 882.466 178.84C882.466 179.713 882.342 180.398 882.092 180.897L840.017 264.112V300.951C840.017 302.322 839.519 303.507 838.521 304.504C837.524 305.501 836.34 306 834.968 306Z" fill="url(#paint0_linear_1_130)"/>
<defs>
<linearGradient id="paint0_linear_1_130" x1="440.5" y1="-12" x2="440.5" y2="334" gradientUnits="userSpaceOnUse">
<stop stop-color="white" stop-opacity="0.95"/>
<stop offset="1" stop-color="white" stop-opacity="0"/>
</linearGradient>
</defs>
</svg>
