<svg width="27" height="27" viewBox="0 0 27 27" fill="none" xmlns="http://www.w3.org/2000/svg">
<path d="M18.1158 8.69568V6.55802C18.1158 5.8919 17.9846 5.2323 17.7297 4.61689C17.4748 4.00147 17.1011 3.44229 16.6301 2.97127C16.1591 2.50026 15.5999 2.12662 14.9845 1.87171C14.3691 1.6168 13.7095 1.4856 13.0434 1.4856C12.3773 1.4856 11.7177 1.6168 11.1022 1.87171C10.4868 2.12662 9.92765 2.50026 9.45663 2.97127C8.98561 3.44229 8.61198 4.00147 8.35707 4.61689C8.10215 5.2323 7.97095 5.8919 7.97095 6.55802V11.6304C7.97095 11.8226 8.0473 12.0069 8.18319 12.1428C8.31909 12.2787 8.5034 12.3551 8.69558 12.3551C8.88777 12.3551 9.07208 12.2787 9.20798 12.1428C9.34387 12.0069 9.42022 11.8226 9.42022 11.6304V10.1449H15.2173V8.69568H9.42022V6.55802C9.42022 5.5971 9.80194 4.67553 10.4814 3.99606C11.1609 3.31658 12.0825 2.93486 13.0434 2.93486C14.0043 2.93486 14.9259 3.31658 15.6053 3.99606C16.2848 4.67553 16.6665 5.5971 16.6665 6.55802V11.5942C16.6665 11.7864 16.7429 11.9707 16.8788 12.1066C17.0147 12.2425 17.199 12.3188 17.3912 12.3188C17.5833 12.3188 17.7677 12.2425 17.9036 12.1066C18.0395 11.9707 18.1158 11.7864 18.1158 11.5942V10.1449H21.739V23.1883H4.34779V10.1449H6.52169V8.69568H2.89853V23.2535C2.89853 23.6206 3.04435 23.9726 3.30391 24.2322C3.56347 24.4918 3.9155 24.6376 4.28258 24.6376H21.8042C22.1712 24.6376 22.5233 24.4918 22.7828 24.2322C23.0424 23.9726 23.1882 23.6206 23.1882 23.2535V8.69568H18.1158Z" fill="#292D32"/>
</svg>
