<svg width="767" height="202" viewBox="0 0 767 202" fill="none" xmlns="http://www.w3.org/2000/svg">
<path d="M7.776 0.399902H90.72C118.752 0.399902 141.792 7.4079 159.84 21.4239C178.08 35.2479 187.2 54.6399 187.2 79.5999V122.512C187.2 148.624 178.368 168.4 160.704 181.84C143.04 195.28 119.808 202 91.008 202H7.776C5.664 202 3.84 201.232 2.304 199.696C0.768001 198.16 0 196.336 0 194.224V8.1759C0 6.06391 0.768001 4.23991 2.304 2.70391C3.84 1.16791 5.664 0.399902 7.776 0.399902ZM72 56.5599V145.84H90.72C97.248 145.84 102.432 143.92 106.272 140.08C110.304 136.048 112.32 130.192 112.32 122.512V79.5999C112.32 64.2399 105.12 56.5599 90.72 56.5599H72Z" fill="url(#paint0_linear_1_101)" fill-opacity="0.7"/>
<path d="M287.932 145.84H376.637C378.749 145.84 380.573 146.608 382.109 148.144C383.645 149.68 384.413 151.504 384.413 153.616V194.224C384.413 196.336 383.645 198.16 382.109 199.696C380.573 201.232 378.749 202 376.637 202H226.589C224.477 202 222.652 201.232 221.117 199.696C219.581 198.16 218.812 196.336 218.812 194.224V8.1759C218.812 6.06391 219.581 4.23991 221.117 2.70391C222.652 1.16791 224.477 0.399902 226.589 0.399902H374.332C376.444 0.399902 378.269 1.16791 379.805 2.70391C381.341 4.23991 382.109 6.06391 382.109 8.1759V48.7839C382.109 50.8959 381.341 52.7199 379.805 54.2559C378.269 55.7919 376.444 56.5599 374.332 56.5599H287.932V74.7039H367.996C370.108 74.7039 371.932 75.4719 373.469 77.0079C375.004 78.5439 375.772 80.3679 375.772 82.4799V119.92C375.772 122.032 375.004 123.856 373.469 125.392C371.932 126.928 370.108 127.696 367.996 127.696H287.932V145.84Z" fill="url(#paint1_linear_1_101)" fill-opacity="0.7"/>
<path d="M492.215 142.96H571.99C574.102 142.96 575.927 143.728 577.463 145.264C578.999 146.8 579.766 148.624 579.766 150.736V194.224C579.766 196.336 578.999 198.16 577.463 199.696C575.927 201.232 574.102 202 571.99 202H426.839C424.727 202 422.902 201.232 421.366 199.696C419.83 198.16 419.062 196.336 419.062 194.224V8.1759C419.062 6.06391 419.83 4.23991 421.366 2.70391C422.902 1.16791 424.727 0.399902 426.839 0.399902H484.439C486.551 0.399902 488.374 1.16791 489.91 2.70391C491.447 4.23991 492.215 6.06391 492.215 8.1759V142.96Z" fill="url(#paint2_linear_1_101)" fill-opacity="0.7"/>
<path d="M678.964 142.96H758.74C760.852 142.96 762.677 143.728 764.213 145.264C765.749 146.8 766.516 148.624 766.516 150.736V194.224C766.516 196.336 765.749 198.16 764.213 199.696C762.677 201.232 760.852 202 758.74 202H613.589C611.477 202 609.652 201.232 608.116 199.696C606.58 198.16 605.812 196.336 605.812 194.224V8.1759C605.812 6.06391 606.58 4.23991 608.116 2.70391C609.652 1.16791 611.477 0.399902 613.589 0.399902H671.188C673.3 0.399902 675.125 1.16791 676.661 2.70391C678.197 4.23991 678.964 6.06391 678.964 8.1759V142.96Z" fill="url(#paint3_linear_1_101)" fill-opacity="0.7"/>
<defs>
<linearGradient id="paint0_linear_1_101" x1="378.356" y1="12.2246" x2="378.356" y2="202" gradientUnits="userSpaceOnUse">
<stop stop-color="white" stop-opacity="0.979167"/>
<stop offset="1" stop-color="#F2F2F2"/>
</linearGradient>
<linearGradient id="paint1_linear_1_101" x1="378.356" y1="12.2246" x2="378.356" y2="202" gradientUnits="userSpaceOnUse">
<stop stop-color="white" stop-opacity="0.979167"/>
<stop offset="1" stop-color="#F2F2F2"/>
</linearGradient>
<linearGradient id="paint2_linear_1_101" x1="378.356" y1="12.2246" x2="378.356" y2="202" gradientUnits="userSpaceOnUse">
<stop stop-color="white" stop-opacity="0.979167"/>
<stop offset="1" stop-color="#F2F2F2"/>
</linearGradient>
<linearGradient id="paint3_linear_1_101" x1="378.356" y1="12.2246" x2="378.356" y2="202" gradientUnits="userSpaceOnUse">
<stop stop-color="white" stop-opacity="0.979167"/>
<stop offset="1" stop-color="#F2F2F2"/>
</linearGradient>
</defs>
</svg>
