<svg width="24" height="24" viewBox="0 0 24 24" fill="none" xmlns="http://www.w3.org/2000/svg">
<g clip-path="url(#clip0_204_24)">
<g clip-path="url(#clip1_204_24)">
<path d="M6.5 1.91699C4.70495 1.99498 3.01371 2.78025 1.79579 4.10122C0.577864 5.4222 -0.0677465 7.17152 4.06709e-06 8.96699C4.06709e-06 13.514 4.786 18.48 8.8 21.847C9.69622 22.6001 10.8294 23.013 12 23.013C13.1706 23.013 14.3038 22.6001 15.2 21.847C19.214 18.48 24 13.514 24 8.96699C24.0678 7.17152 23.4221 5.4222 22.2042 4.10122C20.9863 2.78025 19.2951 1.99498 17.5 1.91699M6.5 1.91699L6.49767 2.06697C6.49915 2.067 6.50062 2.06702 6.50209 2.06704M6.5 1.91699L6.50652 2.06685C6.50504 2.06691 6.50357 2.06698 6.50209 2.06704M6.5 1.91699C7.62605 1.93451 8.72754 2.24885 9.69324 2.82826C10.6089 3.37768 11.3718 4.14698 11.9133 5.06523C11.8983 5.09149 11.8834 5.11787 11.8688 5.14435L12 5.21699L12.1312 5.14435C12.1166 5.11787 12.1017 5.09149 12.0867 5.06523C12.6282 4.14698 13.3911 3.37768 14.3068 2.82826C15.2725 2.24885 16.374 1.93451 17.5 1.91699M6.50209 2.06704C4.74828 2.14441 3.09612 2.91215 1.90607 4.2029C0.71501 5.49474 0.0836414 7.20547 0.149897 8.96134L0.150111 8.96699H0.150004C0.150004 11.1911 1.32261 13.5368 3.0141 15.7586C4.7029 17.977 6.89361 20.0521 8.8964 21.7321L8.89651 21.7322C9.7657 22.4626 10.8647 22.863 12 22.863C13.1353 22.863 14.2343 22.4626 15.1035 21.7322L15.1036 21.7321C17.1064 20.0521 19.2971 17.977 20.9859 15.7586C22.6774 13.5368 23.85 11.1911 23.85 8.96699V8.96133L23.8501 8.96134C23.9164 7.20547 23.285 5.49474 22.0939 4.2029C20.9039 2.91215 19.2517 2.14441 17.4979 2.06704M6.50209 2.06704C7.60021 2.0849 8.67427 2.39181 9.61607 2.95689C10.5591 3.52272 11.3362 4.32739 11.8688 5.28963L12 5.52675L12.1312 5.28963C12.6638 4.32739 13.4409 3.52272 14.3839 2.95689C15.3257 2.39181 16.3998 2.0849 17.4979 2.06704M17.4979 2.06704C17.4994 2.06702 17.5009 2.067 17.5023 2.06697L17.5 1.91699M17.4979 2.06704C17.4964 2.06698 17.495 2.06691 17.4935 2.06685L17.5 1.91699M14.065 20.3868L14.0116 20.4317C13.4486 20.9059 12.7361 21.1659 12 21.1659C11.264 21.1659 10.5516 20.9059 9.98859 20.4319C9.98852 20.4318 9.98845 20.4318 9.98838 20.4317L10.085 20.317C4.947 16.006 2 11.87 2 8.96699L14.065 20.3868ZM14.065 20.3868V20.3829C16.6151 18.2395 18.6276 16.1356 20.0064 14.2005C21.391 12.2575 22.1486 10.468 22.15 8.97106C22.2194 7.66763 21.7711 6.38949 20.9026 5.4149C20.0333 4.43931 18.8134 3.84704 17.5092 3.76727L17.5 3.76671L17.4908 3.76727C16.1866 3.84704 14.9667 4.43931 14.0974 5.4149C13.229 6.38944 12.7807 7.66749 12.85 8.97085C12.849 9.19489 12.7595 9.40954 12.601 9.56803C12.4416 9.72744 12.2254 9.81699 12 9.81699C11.7746 9.81699 11.5584 9.72744 11.399 9.56803C11.2405 9.40954 11.151 9.19489 11.15 8.97085C11.2193 7.66749 10.771 6.38944 9.90263 5.4149C9.03329 4.43931 7.81345 3.84704 6.50916 3.76727L6.5 3.76671L6.49085 3.76727C5.18656 3.84704 3.96672 4.43931 3.09738 5.4149C2.22893 6.38949 1.78065 7.66762 1.85001 8.97105L14.065 20.3868Z" fill="#292D32" stroke="#F9F9F9" stroke-width="0.3"/>
</g>
</g>
<defs>
<clipPath id="clip0_204_24">
<rect width="24" height="24" fill="white"/>
</clipPath>
<clipPath id="clip1_204_24">
<rect width="24" height="24" fill="white"/>
</clipPath>
</defs>
</svg>
