<svg width="24" height="24" viewBox="0 0 24 24" fill="none" xmlns="http://www.w3.org/2000/svg">
<g clip-path="url(#clip0_204_17)">
<g clip-path="url(#clip1_204_17)">
<path d="M9.94939 6.94939C10.4932 6.40553 11.2309 6.1 12 6.1C12.7691 6.1 13.5068 6.40553 14.0506 6.94939C14.5945 7.49325 14.9 8.23087 14.9 9V21C14.9 21.7691 14.5945 22.5068 14.0506 23.0506C13.5068 23.5945 12.7691 23.9 12 23.9C11.2309 23.9 10.4932 23.5945 9.94939 23.0506C9.40553 22.5068 9.1 21.7691 9.1 21V9C9.1 8.23087 9.40553 7.49325 9.94939 6.94939ZM12.7778 21.7778C12.9841 21.5715 13.1 21.2917 13.1 21V9C13.1 8.70826 12.9841 8.42847 12.7778 8.22218C12.5715 8.01589 12.2917 7.9 12 7.9C11.7083 7.9 11.4285 8.01589 11.2222 8.22218C11.0159 8.42847 10.9 8.70826 10.9 9V21C10.9 21.2917 11.0159 21.5715 11.2222 21.7778C11.4285 21.9841 11.7083 22.1 12 22.1C12.2917 22.1 12.5715 21.9841 12.7778 21.7778Z" fill="#292D32" stroke="#FAFAFA" stroke-width="0.2"/>
<path d="M18.9494 0.94939C19.4932 0.405535 20.2309 0.1 21 0.1C21.7691 0.1 22.5068 0.405535 23.0506 0.94939C23.5945 1.49325 23.9 2.23087 23.9 3V21C23.9 21.7691 23.5945 22.5068 23.0506 23.0506C22.5068 23.5945 21.7691 23.9 21 23.9C20.2309 23.9 19.4932 23.5945 18.9494 23.0506C18.4055 22.5068 18.1 21.7691 18.1 21V3C18.1 2.23087 18.4055 1.49325 18.9494 0.94939ZM21.7778 21.7778C21.9841 21.5715 22.1 21.2917 22.1 21V3C22.1 2.70826 21.9841 2.42847 21.7778 2.22218C21.5715 2.01589 21.2917 1.9 21 1.9C20.7083 1.9 20.4285 2.01589 20.2222 2.22218C20.0159 2.42847 19.9 2.70826 19.9 3V21C19.9 21.2917 20.0159 21.5715 20.2222 21.7778C20.4285 21.9841 20.7083 22.1 21 22.1C21.2917 22.1 21.5715 21.9841 21.7778 21.7778Z" fill="#292D32" stroke="#FAFAFA" stroke-width="0.2"/>
<rect x="0.75" y="12.75" width="4.5" height="10.5" rx="2.25" stroke="#292D32" stroke-width="1.5"/>
</g>
</g>
<defs>
<clipPath id="clip0_204_17">
<rect width="24" height="24" fill="white"/>
</clipPath>
<clipPath id="clip1_204_17">
<rect width="24" height="24" fill="white"/>
</clipPath>
</defs>
</svg>
