<svg width="20" height="20" viewBox="0 0 20 20" fill="none" xmlns="http://www.w3.org/2000/svg">
<g clip-path="url(#clip0_176_31)">
<rect width="20" height="20" fill="white"/>
<g clip-path="url(#clip1_176_31)">
<rect width="18.4002" height="18.4002" transform="translate(0.766663 0.766602)" fill="white"/>
<path d="M18.9422 17.8579L14.3659 13.2817C15.613 11.7564 16.2262 9.81023 16.0785 7.84561C15.9309 5.88098 15.0338 4.04825 13.5729 2.7265C12.1119 1.40475 10.1987 0.6951 8.22919 0.744345C6.25964 0.79359 4.38437 1.59796 2.99126 2.99107C1.59814 4.38419 0.793773 6.25946 0.744528 8.229C0.695283 10.1985 1.40493 12.1117 2.72668 13.5727C4.04843 15.0337 5.88117 15.9307 7.84579 16.0784C9.81041 16.226 11.7566 15.6128 13.2818 14.3657L17.8581 18.942C18.0027 19.0817 18.1964 19.1589 18.3974 19.1572C18.5984 19.1554 18.7907 19.0748 18.9328 18.9327C19.075 18.7905 19.1556 18.5982 19.1574 18.3972C19.1591 18.1962 19.0818 18.0025 18.9422 17.8579ZM8.4334 14.5666C7.22033 14.5666 6.0345 14.2069 5.02587 13.5329C4.01724 12.859 3.23111 11.9011 2.76689 10.7804C2.30267 9.65963 2.18121 8.42641 2.41786 7.23665C2.65452 6.04689 3.23867 4.95403 4.09644 4.09626C4.95421 3.23849 6.04707 2.65434 7.23683 2.41768C8.42659 2.18102 9.65981 2.30248 10.7805 2.76671C11.9013 3.23093 12.8592 4.01706 13.5331 5.02569C14.2071 6.03432 14.5668 7.22014 14.5668 8.43321C14.565 10.0593 13.9182 11.6183 12.7683 12.7682C11.6185 13.918 10.0595 14.5648 8.4334 14.5666Z" fill="#292D32"/>
</g>
</g>
<defs>
<clipPath id="clip0_176_31">
<rect width="20" height="20" fill="white"/>
</clipPath>
<clipPath id="clip1_176_31">
<rect width="18.4002" height="18.4002" fill="white" transform="translate(0.766663 0.766602)"/>
</clipPath>
</defs>
</svg>
